<?xml version="1.0" encoding="utf-8"?>
<!-- Generator: Adobe Illustrator 24.3.0, SVG Export Plug-In . SVG Version: 6.00 Build 0)  -->
<svg version="1.1" id="Layer_1" xmlns="http://www.w3.org/2000/svg" xmlns:xlink="http://www.w3.org/1999/xlink" x="0px" y="0px"
	 viewBox="0 0 512 512" style="enable-background:new 0 0 512 512;" xml:space="preserve">
<style type="text/css">
	.st0{fill:#FFFFFF;}
	.st1{fill:#00693E;}
</style>
<g id="XMLID_1_">
	<path id="XMLID_5_" d="M54.85,0.04v158.93h20.2v194h-20.2V511.9h324.03l78.27-70.14V70.04L378.88-0.1L54.85,0.04L54.85,0.04z
		 M239.59,158.97h53.02v194h-53.02V158.97z"/>
	<path id="XMLID_8_" class="st0" d="M64.95,10.14v138.73h20.2v214.34h-20.2v138.73h310.15l71.96-64.53V74.67l-71.96-64.53H64.95
		L64.95,10.14z M302.71,363.21h-73.22V148.87h73.22V363.21z"/>
	<path id="XMLID_11_" d="M93,38.19v82.76h20.2v270.31H93v82.76h271.43l54.71-49.1V87.15l-54.71-48.96
		C364.43,38.19,93,38.19,93,38.19z M319.82,120.96c2.67,2.38,8.56,7.72,10.94,9.82v250.95c-3.93,3.51-10.8,9.54-10.8,9.54H201.57
		V120.96H319.82L319.82,120.96z"/>
	<path id="XMLID_14_" class="st1" d="M360.5,48.29H103.1v62.42h20.2v290.51h-20.2v62.42h257.4l48.39-43.48V91.64L360.5,48.29
		L360.5,48.29z M191.33,401.36V110.86h132.28c2.67,2.38,14.17,12.62,17.25,15.43v260.07c-3.09,2.81-14.45,12.76-17.11,15.15
		L191.33,401.36L191.33,401.36z"/>
</g>
</svg>
